<svg id="Layer_1" data-name="Layer 1" xmlns="http://www.w3.org/2000/svg" viewBox="0 0 469.31 237.88"><title>Artboard 1</title><path d="M208.72,122.81c-3.71,3.55-4.32,7.54-4.26,11.95.16,11-.11,22,.14,33,.08,3.7-1.27,4.79-4.71,5.09-8.19.72-8.32.94-12.26-6.5-7.3-13.78-14.35-27.68-21.68-41.44-.78-1.46-2.7-2.31-4.09-3.44-.67,1.69-1.91,3.37-1.93,5.07-.17,12.45,0,24.91-.15,37.37,0,3.5,1,5.14,4.69,5.17,1,0,2.73,1.73,2.7,2.61-.08,2.15,1.79,5.53-2.22,6.11-7.87,1.13-15.76,2.07-23.66,2.92-.79.08-2.49-1.12-2.44-1.59.24-2.4-1.82-6.1,1.77-6.88,5.64-1.23,6.07-4.71,5.88-9.36-.26-6.62-.2-13.25,0-19.87.11-4.27-.12-8.25-4.4-10.91,4-4.23,4.59-9,4.41-14.21-.24-6.88-.12-13.78,0-20.67,0-3.36-.75-5.73-4.74-5.67-3,0-2.76-2.12-2.79-4.17s.15-3.91,2.95-4.19c5.67-.56,11.3-1.44,17-1.87a4.65,4.65,0,0,1,3.67,1.88c5.78,10.83,11.37,21.78,17,32.7,2.18,4.23,4.22,8.52,6.54,12.67a3.58,3.58,0,0,0,2.86,1.37c.73,0,1.53-1.2,2-2,.3-.49.12-1.29.12-2,0-11.79-.06-23.59,0-35.38,0-3-.88-4.65-4-4.48s-3.75-1.44-3.69-4.19.12-4.84,3.77-5.15c7-.6,13.94-1.7,20.92-2.37,1.23-.12,3.69.91,3.67,1.3-.14,2.42,1.83,6.18-1.55,7-5.64,1.36-5.9,4.89-5.73,9.48.24,6.62.1,13.25,0,19.87C204.45,116.13,204,120.36,208.72,122.81Z"/><path d="M379,100.52c-3.46,2.78-3.94,6.68-3.83,11,.2,7.94.14,15.9,0,23.84-.05,2.84.88,4.29,3.84,4.12,2.49-.14,4,.54,3.83,3.56-.16,2.84.37,5.47-3.91,5.79-7,.53-13.94,1.7-20.92,2.38-1.24.12-3.72-.88-3.7-1.26.13-2.42-1.82-6.23,1.51-7,5.76-1.31,5.8-4.93,5.67-9.46-.21-7.68-.15-15.37,0-23,.05-3.06-1.1-4-4-3.56q-11.81,1.62-23.66,2.93c-3,.33-4.2,2-4.22,4.66-.05,8.88,0,17.75,0,26.63,0,2.62,1.11,4.09,3.76,4,3.46-.18,3.69,1.87,3.74,4.57s-.46,4.44-3.73,4.74c-7.12.67-14.2,1.78-21.31,2.48-1.22.12-3.59-.83-3.64-1.44-.19-2.15-1.5-5.42,1.73-6.13,5.33-1.17,5.95-4.56,5.83-9.09-.21-7.54.18-15.11-.18-22.65-.14-2.86-2.44-5.68-2.31-8.46s2.94-5.31,3.06-8c.39-9,.16-18,0-27,0-3.22-1.13-5.61-5.13-5.62-.83,0-2.28-2-2.33-3.06-.1-2-1.39-5,2-5.55,8.12-1.19,16.28-2.11,24.45-3,.67-.07,2.15,1.31,2.11,1.95-.14,2.29,1.61,5.87-1.75,6.54-5.65,1.13-5.62,4.72-5.61,9.12,0,7.5-.45,15-.66,22.51-.07,2.47,1,3.59,3.68,3.14,8.3-1.39,16.63-2.63,25-3.87,2.45-.37,3.28-1.71,3.23-4.1-.11-4.9-.13-9.8,0-14.7.08-3.14.44-6.29.77-9.42s-.66-5.2-4.26-5c-2.1.1-3.41-.68-3.08-3s-1.46-5.54,2.5-6.06c8.14-1.08,16.31-1.93,24.47-2.85a3.12,3.12,0,0,1,1.09.3c.83,4.69-.27,6.4-3.82,8.32-1.58.86-3.34,3-3.42,4.7-.42,9.65-.58,19.32-.32,29C375.53,95.62,377.6,97.78,379,100.52Z"/><path d="M224.65,120.68c4.69-3.47,4.71-8,4.49-12.53-.12-2.38,0-4.77,0-7.15,0-20.3,10.77-32.51,31-34.54,5.42-.54,11,.39,16.48.45,1.15,0,3-.53,3.34-1.34,2.13-4.56,6.43-2.61,9.75-3.43a3.74,3.74,0,0,1,1.41,2.51c-.85,6.16-1.82,12.31-3.05,18.41-.21,1-1.68,2-2.79,2.65-.86.48-2.06.33-3.12.45-5.78.65-5.92.66-6.44-5.11-.22-2.44-1.49-3.46-3.49-3.4-5.78.18-11.72-.12-17.29,1.14-8.21,1.86-11.8,7.34-12.1,16.44a128.91,128.91,0,0,0,.09,15.48c.22,2.53,1.85,4.93,3.09,8-3.52,2.67-3.57,7.29-3.21,12,.45,5.89.73,11.82,1.57,17.66.55,3.82,3.65,5.59,7.2,6.52,7.52,2,18.41-.88,21.37-7.37,2.3-5,1.78-11.39,2.31-17.17,0-.4-1.53-1.24-2.43-1.37a23,23,0,0,0-4.76,0c-2.21.15-3.25-.73-3-3a11.78,11.78,0,0,0,0-1.19c0-5.81,0-5.86,5.55-6.57,5.38-.69,10.79-1.24,16.17-1.92,2.18-.28,3.16.38,3.1,2.75-.33,13.2-.5,26.4-1,39.6,0,1.06-1.67,2.91-2.63,2.95-3,.14-6.76,2.92-9.06-1.7-.16-.32-2.74,0-3.73.73-10,7-21.08,8.08-32.08,4.17-7.51-2.67-11.57-9.42-12.05-17.66-.3-5.15-.31-10.32-.26-15.48C229.19,127.5,229.54,123.33,224.65,120.68Z"/><path d="M74.45,91.63c-1.24,8-2.26,14.83-3.46,21.67-.11.62-1.24,1.31-2,1.51-1.53.4-3.17.35-4.71.73-3.72.9-5.84.07-5.67-4.3s-3.61-4.49-6.32-4.9c-7.15-1.09-12.91,2.06-17.42,7.31s-4.65,10.64-1.3,16.58c4.07,7.2,7.43,8.89,16.18,7.86,1.46,5.18,5.73,7.33,10.4,9.53,17.65,8.33,19.11,29.77,3.06,41.24-13.47,9.62-28.09,9.41-43.15,5-1.1-.32-2.2-2.1-2.49-3.39a20.52,20.52,0,0,1,.06-5.53c.56-9,.57-9,9.47-9.68,2.25-.18,3.27.25,3.65,2.76,1,6.49,1.13,6.56,7.85,7.06,8.11.61,15.15-1.07,19.7-8.83,4.22-7.19,2.93-13.58-4-18.16-4.3-2.86-8.3-6.32-14.09-4.1-.42.16-1.3-.56-1.83-1-2.32-2-4.35-4.5-6.92-6.12-14.32-9-17.94-23.46-9-36.56C31.09,97.56,43.63,94.9,57.81,96.19c2.42.22,4.14.67,6.29-2C65.72,92.16,70.3,92.52,74.45,91.63Z"/><path d="M427.08,87.2c1.42,6.33,7.62,7.4,12.18,10.06,13,7.58,16.12,19,8.65,32.21-3.72,6.55-9.18,10.46-16,12.74a93.85,93.85,0,0,1-11.77,3.08c-7.93,1.54-15.46-.7-22.85-3.19a4.46,4.46,0,0,1-2.34-3.34c-.11-3.42.38-6.86.57-10.29.13-2.27,1.25-3.34,3.52-3.38a26.08,26.08,0,0,0,3.15-.4c5.39-.78,5.47-.79,6.16,4.47.38,2.9,1.66,4.47,4.71,4.75,6.54.59,12.78.69,18.33-3.9,8.11-6.71,10.21-17.83-1.61-24.65-3.12-1.8-6.36-4-10.42-2.47a1.88,1.88,0,0,1-1.73-.43c-2.65-4.82-7.8-6.41-11.93-9.26C395.18,86,392,73.7,398,62.47c5.35-10.13,13.67-16.36,25-17.77,8.45-1.05,17.1-.46,25.33-3.29a6.71,6.71,0,0,1,1.83,0,14.88,14.88,0,0,1,.26,2.7c-.48,5.27-1.13,10.53-1.51,15.81-.19,2.65-1,4.32-3.94,4.27-.78,0-1.57.26-2.36.32-5.27.39-6.43,2-6.72-5.19a4.86,4.86,0,0,0-3.2-3.41A35.07,35.07,0,0,0,422,56a15.79,15.79,0,0,0-8.89,26.14C418.36,88.06,418.47,88.1,427.08,87.2Z"/><path d="M95.81,137.85c4.23-3.26,4.48-7.36,4.38-11.75-.19-7.67-.15-15.36,0-23,.06-3.14-1-4.86-4.23-4.69-2.92.15-3.52-1.41-3.4-4s-.33-4.91,3.56-5.23c7.12-.57,14.18-1.74,21.29-2.46,1.26-.13,3.76.8,3.74,1.09-.2,2.44-.44,6.73-1.43,6.94-6.22,1.35-6,5.6-5.87,10.29.16,6.75.17,13.51,0,20.25-.1,3.88.08,7.47,4.66,10-5.54,3.49-4.62,8.6-4.61,13.46,0,7.15.13,14.3-.06,21.45-.08,3.15,1,4.91,4.16,4.78,2.86-.11,3.63,1.16,3.47,3.84s.24,5-3.56,5.29c-7,.61-13.93,1.69-20.91,2.41-1.38.14-4.06-.51-4.06-.74a36.6,36.6,0,0,1,1-6.63A1.67,1.67,0,0,1,95,178.12c5.82-.9,5.2-5.22,5.15-9.36-.08-6.88-.12-13.77,0-20.65C100.27,144.22,99.74,140.73,95.81,137.85Z"/><path d="M.12,63.38c3.3-.52,6.58-1.1,9.89-1.55l126.23-17q55.63-7.52,111.26-15.08,58.69-7.95,117.38-15.91Q415,7,465.14.09a29.06,29.06,0,0,1,4,0c0,.54.08,1.08.13,1.62a27,27,0,0,1-3.5.93c-20.49,2.7-41,5.29-61.47,8Q345.72,18.52,287.2,26.51l-118,16Q110.36,50.41,51.54,58.4c-15.45,2.12-30.86,4.52-46.29,6.73a35.86,35.86,0,0,1-5.08,0C.16,64.56.14,64,.12,63.38Z"/><path d="M0,236.28A54.1,54.1,0,0,1,5.4,235c14.45-1.89,28.92-3.64,43.36-5.59,30.14-4.07,60.25-8.25,90.39-12.36,8.93-1.22,17.87-2.28,26.8-3.51q45-6.18,90-12.42c9.32-1.28,18.66-2.35,28-3.63,25.79-3.55,51.58-7.18,77.37-10.73,10.5-1.44,21-2.71,31.51-4.15q36.15-4.95,72.3-10a30.68,30.68,0,0,1,4.07,0c.05.51.1,1,.14,1.54a23.22,23.22,0,0,1-3.48,1c-10.11,1.35-20.24,2.59-30.36,3.95q-59.46,8-118.9,16.07Q258.34,203.08,200.12,211q-57,7.78-114,15.66-40.68,5.6-81.36,11.15a34.21,34.21,0,0,1-4.53,0C.12,237.32.06,236.8,0,236.28Z"/></svg>